{
	"asset":{
		"generator":"Khronos glTF Blender I/O v3.6.27",
		"version":"2.0"
	},
	"extensionsUsed":[
		"KHR_materials_specular",
		"KHR_materials_ior"
	],
	"scene":0,
	"scenes":[
		{
			"name":"Scene",
			"nodes":[
				0
			]
		}
	],
	"nodes":[
		{
			"mesh":0,
			"name":"Icosphere.003",
			"rotation":[
				-0.43801555037498474,
				0.05785389617085457,
				-0.05504307150840759,
				0.8954136371612549
			],
			"scale":[
				0.25900235772132874,
				0.20578305423259735,
				0.41223669052124023
			],
			"translation":[
				-0.9443345665931702,
				0.39023908972740173,
				0.5629481673240662
			]
		}
	],
	"materials":[
		{
			"doubleSided":true,
			"extensions":{
				"KHR_materials_specular":{
					"specularColorFactor":[
						1.8755282025421707,
						1.8755282025421707,
						1.8755282025421707
					]
				},
				"KHR_materials_ior":{
					"ior":1.4500000476837158
				}
			},
			"name":"Material.004",
			"pbrMetallicRoughness":{
				"baseColorFactor":[
					0.8000000715255737,
					0.3887317180633545,
					0.13475801050662994,
					1
				],
				"metallicFactor":0.12272727489471436
			}
		},
		{
			"doubleSided":true,
			"name":"Material.005",
			"pbrMetallicRoughness":{
				"baseColorFactor":[
					0.054968539625406265,
					0.004057863261550665,
					0.012627542950212955,
					1
				],
				"metallicFactor":0,
				"roughnessFactor":0.5
			}
		},
		{
			"doubleSided":true,
			"name":"Material.002",
			"pbrMetallicRoughness":{
				"baseColorFactor":[
					0,
					0,
					0,
					1
				],
				"metallicFactor":0,
				"roughnessFactor":0.5
			}
		},
		{
			"doubleSided":true,
			"name":"Material.001",
			"pbrMetallicRoughness":{
				"baseColorFactor":[
					0.0005154604441486299,
					0.0005154604441486299,
					0.0005154604441486299,
					1
				],
				"metallicFactor":0,
				"roughnessFactor":0.5
			}
		},
		{
			"doubleSided":true,
			"name":"Material.003",
			"pbrMetallicRoughness":{
				"baseColorFactor":[
					0.8000000715255737,
					0.1681937277317047,
					0.47361519932746887,
					1
				],
				"metallicFactor":0,
				"roughnessFactor":0.5
			}
		}
	],
	"meshes":[
		{
			"name":"Icosphere.005",
			"primitives":[
				{
					"attributes":{
						"POSITION":0,
						"NORMAL":1,
						"TEXCOORD_0":2,
						"TANGENT":3
					},
					"indices":4,
					"material":0
				},
				{
					"attributes":{
						"POSITION":5,
						"NORMAL":6,
						"TEXCOORD_0":7,
						"TANGENT":8
					},
					"indices":9,
					"material":1
				},
				{
					"attributes":{
						"POSITION":10,
						"NORMAL":11,
						"TEXCOORD_0":12,
						"TANGENT":13
					},
					"indices":14,
					"material":2
				},
				{
					"attributes":{
						"POSITION":15,
						"NORMAL":16,
						"TEXCOORD_0":17,
						"TANGENT":18
					},
					"indices":14,
					"material":3
				},
				{
					"attributes":{
						"POSITION":19,
						"NORMAL":20,
						"TEXCOORD_0":21,
						"TANGENT":22
					},
					"indices":14,
					"material":4
				}
			]
		}
	],
	"accessors":[
		{
			"bufferView":0,
			"componentType":5126,
			"count":528,
			"max":[
				6.544134140014648,
				10.818852424621582,
				3.41365909576416
			],
			"min":[
				-2.9353585243225098,
				-2.46650767326355,
				-2.8780956268310547
			],
			"type":"VEC3"
		},
		{
			"bufferView":1,
			"componentType":5126,
			"count":528,
			"type":"VEC3"
		},
		{
			"bufferView":2,
			"componentType":5126,
			"count":528,
			"type":"VEC2"
		},
		{
			"bufferView":3,
			"componentType":5126,
			"count":528,
			"type":"VEC4"
		},
		{
			"bufferView":4,
			"componentType":5123,
			"count":528,
			"type":"SCALAR"
		},
		{
			"bufferView":5,
			"componentType":5126,
			"count":54,
			"max":[
				6.544134140014648,
				10.818852424621582,
				3.41365909576416
			],
			"min":[
				-2.235988140106201,
				-2.46650767326355,
				-2.2527599334716797
			],
			"type":"VEC3"
		},
		{
			"bufferView":6,
			"componentType":5126,
			"count":54,
			"type":"VEC3"
		},
		{
			"bufferView":7,
			"componentType":5126,
			"count":54,
			"type":"VEC2"
		},
		{
			"bufferView":8,
			"componentType":5126,
			"count":54,
			"type":"VEC4"
		},
		{
			"bufferView":9,
			"componentType":5123,
			"count":54,
			"type":"SCALAR"
		},
		{
			"bufferView":10,
			"componentType":5126,
			"count":240,
			"max":[
				4.814394950866699,
				9.884465217590332,
				0.4763351082801819
			],
			"min":[
				3.3823413848876953,
				8.076827049255371,
				-0.45658478140830994
			],
			"type":"VEC3"
		},
		{
			"bufferView":11,
			"componentType":5126,
			"count":240,
			"type":"VEC3"
		},
		{
			"bufferView":12,
			"componentType":5126,
			"count":240,
			"type":"VEC2"
		},
		{
			"bufferView":13,
			"componentType":5126,
			"count":240,
			"type":"VEC4"
		},
		{
			"bufferView":14,
			"componentType":5123,
			"count":240,
			"type":"SCALAR"
		},
		{
			"bufferView":15,
			"componentType":5126,
			"count":240,
			"max":[
				0.6268526911735535,
				9.628795623779297,
				0.07172542810440063
			],
			"min":[
				-0.8052007555961609,
				7.821157932281494,
				-0.8611944913864136
			],
			"type":"VEC3"
		},
		{
			"bufferView":16,
			"componentType":5126,
			"count":240,
			"type":"VEC3"
		},
		{
			"bufferView":17,
			"componentType":5126,
			"count":240,
			"type":"VEC2"
		},
		{
			"bufferView":18,
			"componentType":5126,
			"count":240,
			"type":"VEC4"
		},
		{
			"bufferView":19,
			"componentType":5126,
			"count":240,
			"max":[
				2.919771194458008,
				10.706990242004395,
				-1.0184471607208252
			],
			"min":[
				1.9531954526901245,
				9.486910820007324,
				-1.6481287479400635
			],
			"type":"VEC3"
		},
		{
			"bufferView":20,
			"componentType":5126,
			"count":240,
			"type":"VEC3"
		},
		{
			"bufferView":21,
			"componentType":5126,
			"count":240,
			"type":"VEC2"
		},
		{
			"bufferView":22,
			"componentType":5126,
			"count":240,
			"type":"VEC4"
		}
	],
	"bufferViews":[
		{
			"buffer":0,
			"byteLength":6336,
			"byteOffset":0,
			"target":34962
		},
		{
			"buffer":0,
			"byteLength":6336,
			"byteOffset":6336,
			"target":34962
		},
		{
			"buffer":0,
			"byteLength":4224,
			"byteOffset":12672,
			"target":34962
		},
		{
			"buffer":0,
			"byteLength":8448,
			"byteOffset":16896,
			"target":34962
		},
		{
			"buffer":0,
			"byteLength":1056,
			"byteOffset":25344,
			"target":34963
		},
		{
			"buffer":0,
			"byteLength":648,
			"byteOffset":26400,
			"target":34962
		},
		{
			"buffer":0,
			"byteLength":648,
			"byteOffset":27048,
			"target":34962
		},
		{
			"buffer":0,
			"byteLength":432,
			"byteOffset":27696,
			"target":34962
		},
		{
			"buffer":0,
			"byteLength":864,
			"byteOffset":28128,
			"target":34962
		},
		{
			"buffer":0,
			"byteLength":108,
			"byteOffset":28992,
			"target":34963
		},
		{
			"buffer":0,
			"byteLength":2880,
			"byteOffset":29100,
			"target":34962
		},
		{
			"buffer":0,
			"byteLength":2880,
			"byteOffset":31980,
			"target":34962
		},
		{
			"buffer":0,
			"byteLength":1920,
			"byteOffset":34860,
			"target":34962
		},
		{
			"buffer":0,
			"byteLength":3840,
			"byteOffset":36780,
			"target":34962
		},
		{
			"buffer":0,
			"byteLength":480,
			"byteOffset":40620,
			"target":34963
		},
		{
			"buffer":0,
			"byteLength":2880,
			"byteOffset":41100,
			"target":34962
		},
		{
			"buffer":0,
			"byteLength":2880,
			"byteOffset":43980,
			"target":34962
		},
		{
			"buffer":0,
			"byteLength":1920,
			"byteOffset":46860,
			"target":34962
		},
		{
			"buffer":0,
			"byteLength":3840,
			"byteOffset":48780,
			"target":34962
		},
		{
			"buffer":0,
			"byteLength":2880,
			"byteOffset":52620,
			"target":34962
		},
		{
			"buffer":0,
			"byteLength":2880,
			"byteOffset":55500,
			"target":34962
		},
		{
			"buffer":0,
			"byteLength":1920,
			"byteOffset":58380,
			"target":34962
		},
		{
			"buffer":0,
			"byteLength":3840,
			"byteOffset":60300,
			"target":34962
		}
	],
	"buffers":[
		{
			"byteLength":64140,
			"uri":"data:application/octet-stream;base64,"
		}
	]
}
